# xmcd CD database file generated by OrangeCD 5.2
#
# Track frame offsets:
#	150
#	68640
#	89370
#	107502
#	124302
#	194266
#	207278
#	239988
#
# Disc length: 3481 seconds
#
# Revision: 3
# Processed by: cddbd v1.5.1PL0 Copyright (c) Steve Scherf et al.
# Submitted via: OrangeCD 5.2
#
DISCID=730d9708
DTITLE=Fleetwood Mac - They Play On
DYEAR=1900
DGENRE=Blues
TTITLE0=Track01 Rattlesnake Shake - Rattlesnake Shake/Underway
TTITLE1=Stranger Blues
TTITLE2=World in Harmony
TTITLE3=Tiger
TTITLE4=The Green Manalishi
TTITLE5=Great Balls of Fire
TTITLE6=Twist and Shout
TTITLE7=Whole lot of Loving
EXTD=
EXTT0=
EXTT1=
EXTT2=
EXTT3=
EXTT4=
EXTT5=
EXTT6=
EXTT7=
PLAYORDER=
